<?xml version="1.0" encoding="UTF-8"?>
<svg width="400px" height="393px" viewBox="0 0 400 393" version="1.1" xmlns="http://www.w3.org/2000/svg" xmlns:xlink="http://www.w3.org/1999/xlink">
    <!-- Generator: Sketch 50.2 (55047) - http://www.bohemiancoding.com/sketch -->
    <title>back</title>
    <desc>Created with Sketch.</desc>
    <defs></defs>
    <g id="back" stroke="none" stroke-width="1" fill="none" fill-rule="evenodd">
        <polygon id="Stroke-137" stroke="#FFFFFF" points="22.017 383.599 373.52 383.599 373.52 9.199 22.017 9.199"></polygon>
        <path d="M18.7925,391.2974 L4.7245,391.2974 C2.9435,391.2974 1.5005,389.8534 1.5005,388.0724 L1.5005,4.7244 C1.5005,2.9434 2.9435,1.5004 4.7245,1.5004 L18.7925,1.5004 C20.5735,1.5004 22.0165,2.9434 22.0165,4.7244 L22.0165,388.0724 C22.0165,389.8534 20.5735,391.2974 18.7925,391.2974 Z" id="Stroke-139" stroke="#FFFFFF"></path>
        <path d="M390.812,391.2974 L376.744,391.2974 C374.963,391.2974 373.52,389.8534 373.52,388.0724 L373.52,4.7244 C373.52,2.9434 374.963,1.5004 376.744,1.5004 L390.812,1.5004 C392.593,1.5004 394.037,2.9434 394.037,4.7244 L394.037,388.0724 C394.037,389.8534 392.593,391.2974 390.812,391.2974 Z" id="Stroke-140" stroke="#FFFFFF"></path>
        <polygon id="Stroke-141" stroke="#FFFFFF" points="394.037 177.656 398.514 177.656 398.514 160.684 394.037 160.684"></polygon>
        <polygon id="Stroke-142" stroke="#FFFFFF" points="394.037 232.114 398.514 232.114 398.514 215.142 394.037 215.142"></polygon>
        <path d="M318.0127,27.7984 C320.2717,27.7984 322.1037,29.6304 322.1037,31.8894 C322.1037,34.1494 320.2717,35.9804 318.0127,35.9804 C315.7537,35.9804 313.9217,34.1494 313.9217,31.8894 C313.9217,29.6304 315.7537,27.7984 318.0127,27.7984 Z" id="Stroke-143" stroke="#FFFFFF"></path>
    </g>
</svg>