<?xml version="1.0" encoding="UTF-8"?>
<svg width="58px" height="69px" viewBox="0 0 58 69" version="1.1" xmlns="http://www.w3.org/2000/svg" xmlns:xlink="http://www.w3.org/1999/xlink">
    <!-- Generator: Sketch 50.2 (55047) - http://www.bohemiancoding.com/sketch -->
    <title>knob</title>
    <desc>Created with Sketch.</desc>
    <defs></defs>
    <g id="knob" stroke="none" stroke-width="1" fill="none" fill-rule="evenodd">
        <path d="M56.1075,40.5269 C56.1075,55.4909 43.9765,67.6219 29.0125,67.6219 C14.0485,67.6219 1.9175,55.4909 1.9175,40.5269 C1.9175,25.5619 14.0485,13.4319 29.0125,13.4319 C43.9765,13.4319 56.1075,25.5619 56.1075,40.5269 Z" id="Stroke-107" stroke="#FFFFFF"></path>
        <path d="M51.2583,41.7476 C49.9673,40.3376 49.0143,38.5826 48.5863,36.5776 C48.1573,34.5746 48.3093,32.5866 48.9083,30.7726 C47.6193,28.2096 45.8413,25.9036 43.6633,23.9996 C41.7563,24.1296 39.7913,23.7796 37.9563,22.8646 C36.1243,21.9506 34.6653,20.5946 33.6203,18.9956 C30.7163,18.3816 27.8163,18.3656 25.0533,18.8706 C23.9663,20.4426 22.4673,21.7616 20.6083,22.6256 C18.7483,23.4896 16.7733,23.7846 14.8693,23.6016 C12.6773,25.4076 10.8203,27.6426 9.4383,30.2166 C9.9913,32.0496 10.0893,34.0456 9.6043,36.0396 C9.1203,38.0346 8.1183,39.7636 6.7863,41.1386 C6.8343,44.0606 7.4603,46.8966 8.5793,49.5076 C10.3553,50.2186 11.9753,51.3856 13.2323,53.0066 C14.4873,54.6276 15.2153,56.4856 15.4603,58.3826 C17.6843,60.0976 20.2673,61.4126 23.1313,62.1996 C24.7923,61.2576 26.7113,60.7216 28.7583,60.7496 C30.8083,60.7776 32.7143,61.3686 34.3493,62.3576 C37.1593,61.6646 39.7963,60.4316 42.1173,58.7446 C42.4163,56.8566 43.1933,55.0206 44.4923,53.4376 C45.7933,51.8516 47.4443,50.7296 49.2383,50.0686 C49.8283,48.7856 50.3073,47.4306 50.6523,46.0066 C50.9983,44.5826 51.1943,43.1586 51.2583,41.7476 Z" id="Stroke-109" stroke="#FFFFFF"></path>
        <path d="M43.8047,44.1177 C41.8217,52.2877 33.5907,57.3027 25.4207,55.3187 C17.2517,53.3357 12.2367,45.1047 14.2207,36.9347 C16.2037,28.7647 24.4347,23.7507 32.6037,25.7337 C40.7737,27.7187 45.7887,35.9487 43.8047,44.1177 Z" id="Stroke-111" stroke="#FFFFFF"></path>
        <path d="M29.7012,13.4488 C29.4722,13.4428 29.2432,13.4318 29.0132,13.4318 C28.7822,13.4318 28.5542,13.4428 28.3242,13.4488 L28.3242,31.1218 L29.7012,31.1218 L29.7012,13.4488 Z" id="Stroke-113" stroke="#FFFFFF"></path>
        <path d="M29.0127,1.3248 C31.2717,1.3248 33.1037,3.1568 33.1037,5.4158 C33.1037,7.6758 31.2717,9.5068 29.0127,9.5068 C26.7537,9.5068 24.9217,7.6758 24.9217,5.4158 C24.9217,3.1568 26.7537,1.3248 29.0127,1.3248 Z" id="Stroke-115" stroke="#FFFFFF"></path>
    </g>
</svg>